<?xml version="1.0" encoding="utf-8"?>
<!-- Generator: Adobe Illustrator 17.1.0, SVG Export Plug-In . SVG Version: 6.00 Build 0)  -->
<!DOCTYPE svg PUBLIC "-//W3C//DTD SVG 1.1//EN" "http://www.w3.org/Graphics/SVG/1.1/DTD/svg11.dtd">
<svg version="1.1" id="Layer_1" xmlns="http://www.w3.org/2000/svg" xmlns:xlink="http://www.w3.org/1999/xlink" x="0px" y="0px"
	 viewBox="5.9 278.1 606.3 232.1" enable-background="new 5.9 278.1 606.3 232.1" xml:space="preserve">
<g id="Layer_4_copy_2">
	<g>
		<g id="PDWzzA_15_">
			<g>
				<path fill="#FFFFFF" d="M348,364.1c-3.3,3.1-6.5,6-9.8,8.9c-10.9-11.4-24.2-17.6-40.1-17.6c-15.8,0-29.1,6.1-40.1,17.7
					c-3.3-3.1-6.7-6-9.8-8.9C273.2,335.3,321,333.7,348,364.1z"/>
				<path fill="#FFFFFF" d="M329.1,383.5c-3.5,2.9-6.9,5.7-10.2,8.5c-11.3-12.8-31.5-11.6-41.5,0c-3.5-2.8-6.8-5.7-10.2-8.5
					C282,365.1,311.9,363.1,329.1,383.5z"/>
				<path fill="#FFFFFF" d="M298.1,395.9c7.5,0,13.4,6.1,13.4,13.6s-6.1,13.4-13.6,13.4c-7.5,0-13.4-6.1-13.4-13.7
					C284.6,401.9,290.8,395.9,298.1,395.9z"/>
			</g>
		</g>
	</g>
	<g>
		<g id="PDWzzA_14_">
			<g>
				<path fill="#FFFFFF" d="M348,364.1c-3.3,3.1-6.5,6-9.8,8.9c-10.9-11.4-24.2-17.6-40.1-17.6c-15.8,0-29.1,6.1-40.1,17.7
					c-3.3-3.1-6.7-6-9.8-8.9C273.2,335.3,321,333.7,348,364.1z"/>
				<path fill="#FFFFFF" d="M329.1,383.5c-3.5,2.9-6.9,5.7-10.2,8.5c-11.3-12.8-31.5-11.6-41.5,0c-3.5-2.8-6.8-5.7-10.2-8.5
					C282,365.1,311.9,363.1,329.1,383.5z"/>
				<path fill="#FFFFFF" d="M298.1,395.9c7.5,0,13.4,6.1,13.4,13.6s-6.1,13.4-13.6,13.4c-7.5,0-13.4-6.1-13.4-13.7
					C284.6,401.9,290.8,395.9,298.1,395.9z"/>
			</g>
		</g>
	</g>
	<g>
		<g id="PDWzzA_13_">
			<g>
				<path fill="#FFFFFF" d="M348,364.1c-3.3,3.1-6.5,6-9.8,8.9c-10.9-11.4-24.2-17.6-40.1-17.6c-15.8,0-29.1,6.1-40.1,17.7
					c-3.3-3.1-6.7-6-9.8-8.9C273.2,335.3,321,333.7,348,364.1z"/>
				<path fill="#FFFFFF" d="M329.1,383.5c-3.5,2.9-6.9,5.7-10.2,8.5c-11.3-12.8-31.5-11.6-41.5,0c-3.5-2.8-6.8-5.7-10.2-8.5
					C282,365.1,311.9,363.1,329.1,383.5z"/>
				<path fill="#FFFFFF" d="M298.1,395.9c7.5,0,13.4,6.1,13.4,13.6s-6.1,13.4-13.6,13.4c-7.5,0-13.4-6.1-13.4-13.7
					C284.6,401.9,290.8,395.9,298.1,395.9z"/>
			</g>
		</g>
	</g>
</g>
<g id="Layer_1_1_">
	<g id="HrjXDC.tif">
		<g>
			<path fill="#FFFFFF" d="M493.3,429.1c21.6,0,41.9,0,63.7,0c-11.8-6.8-22.4-13-33-18.9c-4.1-2.3-5.3-4.9-5.3-9.4
				c0.1-31.3,0-62.5,0.1-93.8c0-4.7-0.7-7.3-6.4-7.2c-30.3,0.3-60.8,0.3-91.2,0c-5.1,0-6.5,1.9-6.4,6.7c0.3,11.6,0.1,23,0,34.6
				c0,2-0.3,4.1-0.5,7.1c-3.5-1.9-6-3.2-8.4-4.7c-34.6-21-69.3-41.9-103.9-63.1c-4.9-3.1-8.3-2.8-13,0.4
				c-72.7,48.4-145.4,96.6-218.2,144.9c-1.5,0.9-2.8,2.3-5.1,4c17.3,0,33.3,0.3,49.2-0.1c4.1-0.1,8.8-1.5,12.1-3.7
				c54.2-36.1,108.3-72.4,162.3-108.9c4.5-3.1,7.7-3.2,12.5-0.4c43.9,26.2,88,52.3,132,78.4c1.9,1.2,4,2.1,6.7,3.6
				c0-23.8,0.1-46.4-0.1-69.1c0-4.7,1.3-6.3,6.1-6.1c12.9,0.3,25.7,0.4,38.6,0c6.3-0.3,8.4,1.5,8.3,8c-0.4,29.9-0.1,59.9-0.1,89.8
				C493.3,423.5,493.3,426.2,493.3,429.1z"/>
			<path fill="#FFFFFF" d="M493.3,429.1c0-3.1,0-5.6,0-8.3c0-29.9-0.1-59.9,0.1-89.8c0.1-6.7-2-8.3-8.3-8c-12.9,0.4-25.7,0.3-38.6,0
				c-4.7-0.1-6.1,1.6-6.1,6.1c0.1,22.6,0.1,45.2,0.1,69.1c-2.7-1.5-4.8-2.4-6.7-3.6c-44-25.9-88.2-51.9-132.1-78.2
				c-4.7-2.8-8-2.7-12.5,0.4c-54,36.5-108.1,72.8-162.3,108.9c-3.5,2.3-8.1,3.6-12.1,3.7c-16,0.4-31.9,0.1-49.2,0.1
				c2.3-1.9,3.6-3.1,5.1-4c72.8-48.3,145.6-96.5,218.2-144.9c4.8-3.2,8.1-3.5,13-0.4c34.6,21.2,69.3,42.1,104.1,63.1
				c2.4,1.5,4.9,2.8,8.4,4.7c0.3-2.9,0.5-4.9,0.5-7.1c0-11.6,0.1-23,0-34.6c-0.1-4.8,1.3-6.7,6.4-6.7c30.3,0.1,60.8,0.3,91.2,0
				c5.9,0,6.5,2.5,6.4,7.2c-0.1,31.3,0,62.5-0.1,93.8c0,4.5,1.3,7.3,5.3,9.4c10.6,5.9,21.2,12,33,18.9
				C535.2,429.1,514.9,429.1,493.3,429.1z"/>
		</g>
	</g>
</g>
<g id="Layer_3">
	<g>
		<path fill="#FFFFFF" d="M41.3,439.4l12.9,0.3c9.4,0,16,1.6,19.4,4.7c3.5,3.2,5.2,9.4,5.2,18.8v2.5c0,11-1.3,18.4-4.1,22.2
			c-2.8,3.7-9.7,5.6-21,5.6l-12.2,0.3h-5.1l-11-0.3c-6.1,0-10.9-1.5-14.2-4.3S6,481.8,6,475.6l-0.1-9.7c0-10.8,1.3-17.8,4.1-21.3
			c2.8-3.3,9.3-5.1,19.8-5.1L41.3,439.4z M32.5,480.8h8.8h8.3c4.5,0,7.9-0.5,9.8-1.5c2-0.9,3.1-3.5,3.1-7.5l0.1-7.2
			c0-2.4-0.1-4.5-0.4-6.3c-0.3-1.7-0.9-3.1-1.7-3.9c-0.9-0.8-2.1-1.3-4-1.6c-1.7-0.3-3.1-0.4-3.9-0.4c-0.8,0-1.5,0-2,0H34.5
			c-3.7,0-6.5,0.4-8.4,1.1c-1.9,0.7-3.1,2.3-3.3,4.8l-0.4,6.1v1.5v2.1c0,4.9,0.5,8.3,1.7,10S27.9,480.8,32.5,480.8z"/>
		<path fill="#FFFFFF" d="M93.9,461.9c0.5-1.2,1.1-2.3,1.9-3.2c0.7-0.9,1.7-1.6,3.2-2.1c0.7-0.3,1.6-0.4,2.5-0.7
			c1.1-0.3,1.9-0.4,2.4-0.5l6.9-0.4c8.1,0,14,0.9,17.6,2.8c3.6,1.9,5.3,6.4,5.3,13.6v4.5c0,3.2-0.1,5.7-0.5,7.7
			c-0.4,2-1.3,3.9-3.1,5.7c-1.7,1.9-4.1,3.1-7.5,3.7c-1.5,0.3-3.2,0.4-5.3,0.5c-2.1,0.1-4.3,0.3-6.4,0.3c-4.3,0-7.7-0.4-10.5-1.3
			c-2.8-0.8-4.9-2.8-6.4-5.9v23.2h-14V456h13.8V461.9z M108.6,483.8c4.7,0,7.6-0.5,9-1.7c1.5-1.2,2.1-3.9,2.1-8.4
			c0-3.1-0.5-5.2-1.5-6.4s-3.1-1.9-6.3-1.9h-9.2c-0.7,0-1.3,0-2.1,0s-1.6,0.1-2.4,0.3c-0.8,0.1-1.7,0.5-2.4,1.1
			c-0.7,0.5-1.2,1.2-1.5,2.1c-0.3,0.9-0.4,1.6-0.4,2s-0.1,1.1-0.1,2.1v1.5c0,3.2,0.5,5.6,1.5,7.1s3.1,2.1,6.3,2.1h6.9V483.8z"/>
		<path fill="#FFFFFF" d="M162.6,494.1l-13.3-0.5c-6.4,0-10.6-1.6-13-4.9c-2.4-3.2-3.5-8.3-3.5-15.2c0-6.3,1.2-10.8,3.7-13.7
			c2.4-2.9,6.7-4.4,12.8-4.4l13-0.3c4.3,0,7.6,0.3,10,0.7c2.4,0.4,4.7,1.3,6.5,2.9c1.9,1.5,3.1,3.5,3.7,5.7s0.9,4.9,0.9,7.9
			l-0.1,2.1v2.7h-36.6c0,2.9,0.5,5.1,1.6,6.3c1.1,1.2,3.1,1.9,5.9,1.9h7.9c0.5,0,1.2,0,2,0c0.7,0,1.6-0.1,2.7-0.3
			c1.1-0.1,1.7-0.5,2.1-0.9c0.4-0.5,0.7-1.5,0.8-2.9h13.7c0,5.6-1.9,9-5.5,10.6C174.5,493.3,169.3,494.1,162.6,494.1z M156.1,463.5
			c-2.8,0-5.1,0.3-6.8,0.9c-1.7,0.7-2.5,2.1-2.5,4.7v1.1h23c0-2.7-0.7-4.5-2-5.3s-3.5-1.2-6.4-1.2h-5.3V463.5z"/>
		<path fill="#FFFFFF" d="M197.3,463.6c1.1-3.3,3.1-5.6,5.7-6.7c2.7-1.2,6.1-1.7,10.4-1.7c7.6,0,12.9,1.2,16.1,3.7
			c3.2,2.4,4.8,7.5,4.8,14.9v19.6h-13.8v-19.6c0-3.2-0.7-5.3-2-6.4c-1.3-0.9-3.9-1.5-7.6-1.5h-1.6c-4.1,0-7.1,0.5-9,1.7
			c-2,1.2-2.8,3.9-2.8,8.1v0.9v16.6h-13.8v-37.3h13.8v7.5H197.3z"/>
		<path fill="#FFFFFF" d="M305.5,439.9v53.2h-16.2v-20.5h-36.7v20.5h-16.2v-53.2h16.2v19.4h36.7v-19.4H305.5L305.5,439.9z"/>
		<path fill="#FFFFFF" d="M332.7,455.2l14.5,0.5c4.9,0.5,8.4,2,10.4,4.5c2,2.5,2.9,6.4,2.9,11.6v1.6c0,7.6-0.8,12.6-2.5,15.2
			c-1.7,2.5-6.4,4.3-14,5.1l-15.2,0.3c-8,0-13.7-1.1-16.9-3.1c-3.2-2.1-4.9-6.9-4.9-14.5v-2.3c0-4.8,0.4-8.4,1.2-11.2
			c0.8-2.7,2.7-4.5,5.6-5.7c1.5-0.5,3.1-1.1,4.8-1.3c1.7-0.4,3.5-0.5,5.3-0.5L332.7,455.2z M332.9,483.8h1.5h0.9
			c2.1,0,3.9-0.1,5.5-0.3c1.5-0.1,2.7-0.5,3.5-1.2c0.8-0.7,1.3-1.5,1.7-2.4c0.4-1.1,0.5-2.4,0.5-4.1V473c0-1.6-0.1-2.8-0.5-3.7
			c-0.3-0.8-0.9-1.6-1.7-2.3c-0.9-0.7-2.3-1.1-4.3-1.3l-6.5-0.3c-1.2,0-2.3,0-3.3,0.1c-1.1,0-2,0.1-2.9,0.3
			c-1.7,0.1-3.1,0.7-4.1,1.5c-1.1,0.8-1.6,2.1-1.9,3.7l-0.3,3.6c0,1.7,0.1,3.2,0.4,4.4c0.3,1.2,0.8,2.3,1.9,3.1
			c0.8,0.5,2.4,1.1,4.8,1.3L332.9,483.8z"/>
		<path fill="#FFFFFF" d="M374.3,462.9c1.3-2.9,3.3-5.1,5.9-6.1c2.5-1.1,5.7-1.6,9.4-1.6c4.3,0,7.9,0.5,10.8,1.7
			c2.9,1.2,5.3,3.3,6.9,6.7c0.9-3.2,2.9-5.3,5.9-6.5c2.9-1.2,6.4-1.7,10.2-1.7c6.3,0,11.2,1.3,14.9,3.9c3.6,2.5,5.5,6.9,5.5,12.9
			v21.3h-14v-18.5v-1.2c0-2.9-0.5-4.9-1.7-6s-3.6-1.6-7.2-1.6h-1.5c-2.3,0-4.3,0.3-5.9,0.7c-1.6,0.5-2.8,1.2-3.5,2.3
			c-0.4,0.9-0.8,2-1.1,3.1v2.8v0.7v17.8h-13.8V474c0-3.1-0.7-5.1-1.9-6.3c-1.2-1.1-3.6-1.7-6.8-1.7h-1.2c-3.6,0-6.4,0.5-8.3,1.5
			c-1.9,1.1-2.8,3.2-2.8,6.4v19.4h-13.8V456h13.8L374.3,462.9L374.3,462.9z"/>
		<path fill="#FFFFFF" d="M473.2,494.1l-13.3-0.5c-6.4,0-10.6-1.6-13-4.9c-2.4-3.2-3.5-8.3-3.5-15.2c0-6.3,1.2-10.8,3.7-13.7
			c2.4-2.9,6.7-4.4,12.8-4.4l13-0.3c4.3,0,7.6,0.3,10,0.7c2.4,0.4,4.7,1.3,6.5,2.9c1.9,1.5,3.1,3.5,3.7,5.7c0.7,2.3,0.9,4.9,0.9,7.9
			l-0.1,2.1v2.7h-36.6c0,2.9,0.5,5.1,1.6,6.3c1.1,1.2,3.1,1.9,5.9,1.9h7.9c0.5,0,1.2,0,2,0c0.7,0,1.6-0.1,2.7-0.3s1.7-0.5,2.1-0.9
			c0.4-0.5,0.7-1.5,0.8-2.9H494c0,5.6-1.7,9-5.3,10.6C485,493.3,479.9,494.1,473.2,494.1z M466.7,463.5c-2.8,0-5.1,0.3-6.8,0.9
			c-1.7,0.7-2.5,2.1-2.5,4.7v1.1h23c0-2.7-0.7-4.5-2-5.3s-3.5-1.2-6.4-1.2h-5.3V463.5z"/>
		<path fill="#FFFFFF" d="M538.3,439.9c8,0,13.6,1.3,16.6,3.9c3.2,2.5,4.7,7.9,4.7,15.8c0,7.5-1.2,12.6-3.6,15.7
			c-2.4,3.1-7.5,4.7-15.2,4.7h-4.1h-25.3v13.3h-16.2V440h43.1V439.9z M543.3,460.1c0-2.9-0.7-4.9-1.9-5.9c-1.3-0.9-3.5-1.5-6.7-1.5
			h-23.3v14.1H535c3.1,0,5.3-0.4,6.5-1.3C542.7,464.8,543.3,462.9,543.3,460.1z"/>
		<path fill="#FFFFFF" d="M574.7,510.2l-5.2-0.4v-9.3l3.1,0.1c2.5,0,4.3-0.5,5.3-1.5c0.9-0.9,2-2.9,3.3-5.9h-5.7l-17-37.3h15.3
			l10.9,27.4l12.1-27.4h15.3l-21.8,46.6c-1.6,3.3-3.5,5.5-5.6,6.4C582.3,509.8,579,510.2,574.7,510.2z"/>
	</g>
</g>
</svg>
